<?xml version="1.0" encoding="UTF-8" standalone="no"?>
<svg
   xmlns:dc="http://purl.org/dc/elements/1.1/"
   xmlns:cc="http://creativecommons.org/ns#"
   xmlns:rdf="http://www.w3.org/1999/02/22-rdf-syntax-ns#"
   xmlns:svg="http://www.w3.org/2000/svg"
   xmlns="http://www.w3.org/2000/svg"
   viewBox="0 0 259.54666 63.959999"
   height="63.959999"
   width="259.54666"
   xml:space="preserve"
   id="svg2"
   version="1.1"><metadata
     id="metadata8"><rdf:RDF><cc:Work
         rdf:about=""><dc:format>image/svg+xml</dc:format><dc:type
           rdf:resource="http://purl.org/dc/dcmitype/StillImage" /></cc:Work></rdf:RDF></metadata><defs
     id="defs6"><clipPath
       id="clipPath20"
       clipPathUnits="userSpaceOnUse"><path
         id="path18"
         d="m 239.727,419.254 c -1.832,-0.641 -3.754,-0.969 -5.739,-0.973 -9.726,-0.031 -17.679,7.871 -17.707,17.617 -0.023,7.516 4.754,14.239 11.875,16.727 1.836,0.637 3.766,0.969 5.75,0.977 4.774,0.011 9.09,-1.762 12.485,-5.133 3.406,-3.383 5.207,-7.688 5.214,-12.465 0.02,-7.531 -4.753,-14.266 -11.878,-16.75 z m 65.949,-97.445 c -39.688,43.562 -34.215,108.515 -34.059,110.058 2.031,20.735 -12.972,39.492 -33.812,41.719 -20.903,2.246 -39.664,-12.891 -41.899,-33.789 -0.418,-4.024 -9.797,-99.031 52.836,-168.524 8.328,-9.242 17.672,-17.308 27.59,-24.699 32.031,22.793 66.727,31.965 95.922,38.219 -28.367,9.406 -50.293,19.137 -66.578,37.016 z" /></clipPath><linearGradient
       id="linearGradient26"
       spreadMethod="pad"
       gradientTransform="matrix(63.1828,-202.85,-202.85,-63.1828,245.904,455.416)"
       gradientUnits="userSpaceOnUse"
       y2="0"
       x2="1"
       y1="0"
       x1="0"><stop
         id="stop22"
         offset="0"
         style="stop-opacity:1;stop-color:#606fbf" /><stop
         id="stop24"
         offset="1"
         style="stop-opacity:1;stop-color:#4b4ba8" /></linearGradient><clipPath
       id="clipPath36"
       clipPathUnits="userSpaceOnUse"><path
         id="path34"
         d="m 240.867,27.7266 c -1.824,-0.6368 -3.754,-0.9688 -5.722,-0.9688 -4.7,-0.0195 -9.145,1.8125 -12.497,5.1445 -3.355,3.336 -5.207,7.7579 -5.222,12.461 -0.016,7.5351 4.754,14.2578 11.879,16.7422 1.832,0.6367 3.765,0.9687 5.738,0.9726 4.773,0.0157 9.102,-1.7656 12.508,-5.1406 3.383,-3.3633 5.183,-7.6758 5.195,-12.4609 C 252.77,36.9375 248,30.2148 240.867,27.7266 Z M 220.188,209.094 c -8.329,9.242 -17.676,17.308 -27.59,24.695 -32.035,-22.793 -66.727,-31.965 -95.9261,-38.215 28.3671,-9.41 50.2971,-19.14 66.5821,-37.019 39.687,-43.563 34.215,-108.5159 34.059,-110.0589 -2.032,-20.7305 12.972,-39.48829 33.812,-41.71876 20.902,-2.24609 39.66,12.89456 41.898,33.78906 0.415,4.0274 9.797,99.0356 -52.835,168.5276 z" /></clipPath><linearGradient
       id="linearGradient42"
       spreadMethod="pad"
       gradientTransform="matrix(0,227.233,227.233,0,185.213,6.55798)"
       gradientUnits="userSpaceOnUse"
       y2="0"
       x2="1"
       y1="0"
       x1="0"><stop
         id="stop38"
         offset="0"
         style="stop-opacity:1;stop-color:#606fbf" /><stop
         id="stop40"
         offset="1"
         style="stop-opacity:1;stop-color:#4b4ba8" /></linearGradient><clipPath
       id="clipPath52"
       clipPathUnits="userSpaceOnUse"><path
         id="path50"
         d="m 51.2109,226.977 c -1.9179,-1.922 -4.1601,-3.348 -6.6601,-4.219 -1.8438,-0.645 -3.793,-0.973 -5.793,-0.977 -4.7109,-0.019 -9.1445,1.817 -12.5,5.145 -3.3555,3.34 -5.2109,7.762 -5.2226,12.472 -0.0274,7.52 4.75,14.247 11.8711,16.731 1.832,0.641 3.7656,0.961 5.7382,0.973 9.7422,0.027 17.6797,-7.872 17.711,-17.618 0.0117,-4.773 -1.7696,-9.101 -5.1446,-12.507 z M 189.016,378.344 C 179.609,349.973 169.879,328.047 151.996,311.762 108.434,272.074 43.4844,277.547 41.9414,277.703 21.207,279.734 2.44922,264.73 0.222656,243.891 -2.02344,222.988 13.1133,204.227 34.0117,201.992 c 4.0235,-0.418 99.0313,-9.797 168.5233,52.836 9.242,8.328 17.309,17.672 24.699,27.59 -22.793,32.035 -31.968,66.727 -38.218,95.926 z" /></clipPath><linearGradient
       id="linearGradient58"
       spreadMethod="pad"
       gradientTransform="matrix(227.233,0,0,-227.233,0,289.802)"
       gradientUnits="userSpaceOnUse"
       y2="0"
       x2="1"
       y1="0"
       x1="0"><stop
         id="stop54"
         offset="0"
         style="stop-opacity:1;stop-color:#606fbf" /><stop
         id="stop56"
         offset="1"
         style="stop-opacity:1;stop-color:#4b4ba8" /></linearGradient><clipPath
       id="clipPath68"
       clipPathUnits="userSpaceOnUse"><path
         id="path66"
         d="m 442.813,228.305 c -1.934,-1.938 -4.176,-3.36 -6.684,-4.235 -1.836,-0.64 -3.785,-0.968 -5.774,-0.976 -4.722,-0.016 -9.16,1.816 -12.511,5.148 -3.352,3.328 -5.211,7.758 -5.219,12.453 -0.027,7.528 4.746,14.254 11.871,16.739 1.832,0.64 3.758,0.968 5.738,0.976 4.696,0.012 9.129,-1.812 12.481,-5.152 3.355,-3.328 5.215,-7.758 5.223,-12.453 0.019,-4.789 -1.758,-9.106 -5.125,-12.5 z m -7.895,50.07 c -4.023,0.414 -99.031,9.793 -168.523,-52.84 -9.243,-8.328 -17.309,-17.672 -24.7,-27.586 22.793,-32.039 31.965,-66.726 38.219,-95.926 9.406,28.368 19.137,50.297 37.016,66.579 43.562,39.687 108.515,34.214 110.058,34.058 20.735,-2.031 39.492,12.977 41.719,33.817 2.246,20.902 -12.891,39.66 -33.789,41.898 z" /></clipPath><linearGradient
       id="linearGradient74"
       spreadMethod="pad"
       gradientTransform="matrix(227.233,0,0,-227.233,241.696,190.563)"
       gradientUnits="userSpaceOnUse"
       y2="0"
       x2="1"
       y1="0"
       x1="0"><stop
         id="stop70"
         offset="0"
         style="stop-opacity:1;stop-color:#4b4ba8" /><stop
         id="stop72"
         offset="1"
         style="stop-opacity:1;stop-color:#606fbf" /></linearGradient></defs><g
     transform="matrix(1.3333333,0,0,-1.3333333,0,63.96)"
     id="g10"><g
       transform="scale(0.1)"
       id="g12"><g
         id="g14"><g
           clip-path="url(#clipPath20)"
           id="g16"><path
             id="path28"
             style="fill:url(#linearGradient26);fill-opacity:1;fill-rule:nonzero;stroke:none"
             d="m 239.727,419.254 c -1.832,-0.641 -3.754,-0.969 -5.739,-0.973 -9.726,-0.031 -17.679,7.871 -17.707,17.617 -0.023,7.516 4.754,14.239 11.875,16.727 1.836,0.637 3.766,0.969 5.75,0.977 4.774,0.011 9.09,-1.762 12.485,-5.133 3.406,-3.383 5.207,-7.688 5.214,-12.465 0.02,-7.531 -4.753,-14.266 -11.878,-16.75 z m 65.949,-97.445 c -39.688,43.562 -34.215,108.515 -34.059,110.058 2.031,20.735 -12.972,39.492 -33.812,41.719 -20.903,2.246 -39.664,-12.891 -41.899,-33.789 -0.418,-4.024 -9.797,-99.031 52.836,-168.524 8.328,-9.242 17.672,-17.308 27.59,-24.699 32.031,22.793 66.727,31.965 95.922,38.219 -28.367,9.406 -50.293,19.137 -66.578,37.016" /></g></g><g
         id="g30"><g
           clip-path="url(#clipPath36)"
           id="g32"><path
             id="path44"
             style="fill:url(#linearGradient42);fill-opacity:1;fill-rule:nonzero;stroke:none"
             d="m 240.867,27.7266 c -1.824,-0.6368 -3.754,-0.9688 -5.722,-0.9688 -4.7,-0.0195 -9.145,1.8125 -12.497,5.1445 -3.355,3.336 -5.207,7.7579 -5.222,12.461 -0.016,7.5351 4.754,14.2578 11.879,16.7422 1.832,0.6367 3.765,0.9687 5.738,0.9726 4.773,0.0157 9.102,-1.7656 12.508,-5.1406 3.383,-3.3633 5.183,-7.6758 5.195,-12.4609 C 252.77,36.9375 248,30.2148 240.867,27.7266 Z M 220.188,209.094 c -8.329,9.242 -17.676,17.308 -27.59,24.695 -32.035,-22.793 -66.727,-31.965 -95.9261,-38.215 28.3671,-9.41 50.2971,-19.14 66.5821,-37.019 39.687,-43.563 34.215,-108.5159 34.059,-110.0589 -2.032,-20.7305 12.972,-39.48829 33.812,-41.71876 20.902,-2.24609 39.66,12.89456 41.898,33.78906 0.415,4.0274 9.797,99.0356 -52.835,168.5276" /></g></g><g
         id="g46"><g
           clip-path="url(#clipPath52)"
           id="g48"><path
             id="path60"
             style="fill:url(#linearGradient58);fill-opacity:1;fill-rule:nonzero;stroke:none"
             d="m 51.2109,226.977 c -1.9179,-1.922 -4.1601,-3.348 -6.6601,-4.219 -1.8438,-0.645 -3.793,-0.973 -5.793,-0.977 -4.7109,-0.019 -9.1445,1.817 -12.5,5.145 -3.3555,3.34 -5.2109,7.762 -5.2226,12.472 -0.0274,7.52 4.75,14.247 11.8711,16.731 1.832,0.641 3.7656,0.961 5.7382,0.973 9.7422,0.027 17.6797,-7.872 17.711,-17.618 0.0117,-4.773 -1.7696,-9.101 -5.1446,-12.507 z M 189.016,378.344 C 179.609,349.973 169.879,328.047 151.996,311.762 108.434,272.074 43.4844,277.547 41.9414,277.703 21.207,279.734 2.44922,264.73 0.222656,243.891 -2.02344,222.988 13.1133,204.227 34.0117,201.992 c 4.0235,-0.418 99.0313,-9.797 168.5233,52.836 9.242,8.328 17.309,17.672 24.699,27.59 -22.793,32.035 -31.968,66.727 -38.218,95.926" /></g></g><g
         id="g62"><g
           clip-path="url(#clipPath68)"
           id="g64"><path
             id="path76"
             style="fill:url(#linearGradient74);fill-opacity:1;fill-rule:nonzero;stroke:none"
             d="m 442.813,228.305 c -1.934,-1.938 -4.176,-3.36 -6.684,-4.235 -1.836,-0.64 -3.785,-0.968 -5.774,-0.976 -4.722,-0.016 -9.16,1.816 -12.511,5.148 -3.352,3.328 -5.211,7.758 -5.219,12.453 -0.027,7.528 4.746,14.254 11.871,16.739 1.832,0.64 3.758,0.968 5.738,0.976 4.696,0.012 9.129,-1.812 12.481,-5.152 3.355,-3.328 5.215,-7.758 5.223,-12.453 0.019,-4.789 -1.758,-9.106 -5.125,-12.5 z m -7.895,50.07 c -4.023,0.414 -99.031,9.793 -168.523,-52.84 -9.243,-8.328 -17.309,-17.672 -24.7,-27.586 22.793,-32.039 31.965,-66.726 38.219,-95.926 9.406,28.368 19.137,50.297 37.016,66.579 43.562,39.687 108.515,34.214 110.058,34.058 20.735,-2.031 39.492,12.977 41.719,33.817 2.246,20.902 -12.891,39.66 -33.789,41.898" /></g></g><path
         id="path78"
         style="fill:#171f3b;fill-opacity:1;fill-rule:nonzero;stroke:none"
         d="m 684.859,354.938 v -12.286 h 86.633 V 273.477 H 684.859 V 6.46484 H 598.227 V 273.477 h -42.668 v 69.175 h 42.668 v 21.981 c 0,98.918 68.527,115.078 113.136,115.078 17.457,0 41.379,-1.938 60.129,-12.93 v -67.879 c -16.164,7.754 -31.679,7.11 -37.496,7.11 -32.973,0 -49.137,-18.102 -49.137,-51.074" /><path
         id="path80"
         style="fill:#171f3b;fill-opacity:1;fill-rule:nonzero;stroke:none"
         d="m 818.043,465.488 h 86.633 V 6.46484 H 818.043 V 465.488" /><path
         id="path82"
         style="fill:#171f3b;fill-opacity:1;fill-rule:nonzero;stroke:none"
         d="m 1227.29,174.563 c 0,63.351 -45.26,96.976 -93.75,96.976 -48.48,0 -93.74,-34.269 -93.74,-96.976 0,-62.715 45.26,-96.981 93.74,-96.981 48.49,0 93.75,33.617 93.75,96.981 z m -272.829,0 c 0,116.371 83.399,174.554 161.629,174.554 60.12,0 98.91,-32.969 107.32,-51.719 h 1.94 v 45.254 h 86.63 V 6.46484 h -86.63 V 51.7188 h -1.94 C 1215,32.9727 1176.21,0 1116.09,0 1037.86,0 954.461,58.1836 954.461,174.563" /><path
         id="path84"
         style="fill:#171f3b;fill-opacity:1;fill-rule:nonzero;stroke:none"
         d="m 1592.58,346.531 v -82.754 c -7.76,1.289 -14.22,1.942 -21.98,1.942 -65.3,0 -106.03,-45.258 -106.03,-112.496 V 6.46484 h -86.63 V 342.652 h 86.63 v -87.281 c 11.63,51.723 44.61,93.746 105.38,93.746 7.76,0 14.87,-0.644 22.63,-2.586" /><path
         id="path86"
         style="fill:#171f3b;fill-opacity:1;fill-rule:nonzero;stroke:none"
         d="m 1691.5,204.297 h 175.85 c -5.17,47.844 -45.26,71.762 -85.99,71.762 -40.08,0 -78.87,-23.27 -89.86,-71.762 z m 252.78,-63.359 h -251.49 c 12.29,-45.8989 52.37,-69.8208 102.8,-69.8208 32.97,0 62.06,9.0469 86.63,30.3868 l 39.44,-42.0274 C 1893.86,24.5664 1845.37,0 1785.89,0 c -92.45,0 -175.2,62.7109 -175.2,174.563 0,113.136 84.04,174.554 170.03,174.554 85.34,0 182.31,-60.125 163.56,-208.179" /></g></g></svg>